<svg width="800" height="800" viewBox="0 0 800 800" fill="none" xmlns="http://www.w3.org/2000/svg">
<g clip-path="url(#clip0_2_51)">
<g filter="url(#filter0_d_2_51)">
<g filter="url(#filter1_ii_2_51)">
<path fill-rule="evenodd" clip-rule="evenodd" d="M365.138 47.7797C392.774 32.603 423.827 29.4267 455.997 40.9359C485.995 51.6677 505.957 68.8316 516.442 92.165C526.552 114.665 526.585 140.197 522.861 165.425C519.124 190.74 511.176 218.247 503.082 245.609C502.514 247.532 501.944 249.456 501.373 251.38C493.69 277.309 485.958 303.403 480.601 329.562C468.537 388.461 475.332 439.907 481.011 482.897C481.973 490.185 482.904 497.23 483.705 504.027C486.303 526.07 488.089 549.089 481.071 567.357C477.24 577.329 470.813 585.988 461.115 592.321C451.738 598.444 440.432 601.661 427.822 602.963C403.306 605.495 384.015 594.995 370.308 578.549C357.25 562.881 348.977 541.689 343.652 520.207C332.948 477.023 332.418 425.36 335.925 392.008C337.003 381.754 346.19 374.315 356.444 375.393C366.699 376.471 374.138 385.658 373.06 395.913C369.876 426.194 370.498 473.315 379.895 511.223C384.62 530.286 391.136 545.217 398.992 554.643C406.199 563.291 413.948 566.858 423.987 565.821C432.847 564.906 437.852 562.916 440.698 561.057C443.223 559.408 444.93 557.31 446.215 553.966C449.429 545.6 449.374 531.746 446.622 508.398C445.896 502.236 445.015 495.636 444.079 488.63C438.35 445.732 430.591 387.635 444.02 322.07C449.716 294.261 457.891 266.684 465.487 241.06C466.087 239.033 466.684 237.019 467.277 235.018C475.491 207.247 482.633 182.249 485.922 159.972C489.223 137.607 488.219 120.458 482.383 107.469C476.921 95.3138 466.029 84.1821 443.419 76.0932C421.447 68.2326 401.508 70.406 383.112 80.5088C364.108 90.9447 345.751 110.464 329.649 138.79C297.424 195.479 277.013 282.638 277.013 382.291C277.013 480.023 295.268 572.732 327.258 637.851C359.62 703.724 402.193 735.137 450.013 727.452C475.778 723.312 492.701 714.284 504.123 702.998C515.625 691.634 522.947 676.597 527.064 658.113C535.539 620.064 529.591 572.268 523.154 524.485C510.284 428.949 542.779 373.124 568.136 349.496C575.679 342.467 587.493 342.884 594.522 350.427C601.552 357.971 601.135 369.784 593.591 376.814C577.874 391.459 548.759 434.872 560.159 519.499C566.361 565.532 573.715 620.419 563.511 666.231C558.288 689.678 548.276 711.866 530.367 729.56C512.379 747.333 487.815 759.196 455.937 764.319C383.338 775.986 328.594 725.251 293.745 654.315C258.525 582.623 239.673 483.86 239.673 382.291C239.673 278.445 260.802 184.345 297.188 120.337C315.392 88.3129 338.109 62.6232 365.138 47.7797Z" fill="#A2A1A7"/>
</g>
<mask id="mask0_2_51" style="mask-type:alpha" maskUnits="userSpaceOnUse" x="240" y="34" width="360" height="733">
<path fill-rule="evenodd" clip-rule="evenodd" d="M365.605 48.0236C393.241 32.8469 424.293 29.6706 456.464 41.1797C486.461 51.9116 506.424 69.0755 516.909 92.4089C527.018 114.909 527.052 140.441 523.328 165.669C519.591 190.984 511.643 218.491 503.549 245.853C502.98 247.776 502.41 249.699 501.84 251.624C494.157 277.553 486.425 303.646 481.067 329.806C469.004 388.705 475.799 440.151 481.477 483.141C482.44 490.429 483.371 497.474 484.172 504.271C486.77 526.314 488.556 549.333 481.538 567.6C477.707 577.573 471.279 586.232 461.582 592.565C452.205 598.688 440.899 601.905 428.289 603.207C403.773 605.738 384.481 595.239 370.775 578.793C357.717 563.124 349.444 541.933 344.119 520.45C333.414 477.266 332.885 425.603 336.391 392.252C337.47 381.998 346.656 374.559 356.911 375.637C367.166 376.715 374.604 385.902 373.526 396.156C370.343 426.438 370.965 473.559 380.362 511.467C385.087 530.53 391.603 545.461 399.459 554.887C406.666 563.535 414.415 567.102 424.453 566.065C433.314 565.15 438.319 563.16 441.165 561.301C443.69 559.652 445.397 557.554 446.682 554.21C449.896 545.844 449.841 531.989 447.089 508.642C446.363 502.48 445.481 495.88 444.546 488.874C438.817 445.975 431.058 387.879 444.487 322.314C450.183 294.504 458.357 266.928 465.953 241.304C466.554 239.277 467.151 237.263 467.743 235.261C475.958 207.491 483.1 182.493 486.388 160.216C489.69 137.851 488.686 120.702 482.849 107.713C477.388 95.5576 466.496 84.426 443.886 76.3371C421.914 68.4765 401.975 70.6499 383.578 80.7526C364.575 91.1886 346.218 110.708 330.116 139.033C297.891 195.723 277.479 282.881 277.479 382.535C277.479 480.267 295.734 572.976 327.725 638.095C360.087 703.968 402.659 735.381 450.479 727.696C476.245 723.556 493.168 714.528 504.59 703.242C516.092 691.878 523.414 676.841 527.531 658.357C536.006 620.308 530.058 572.512 523.621 524.728C510.751 429.193 543.245 373.368 568.602 349.74C576.146 342.71 587.96 343.127 594.989 350.671C602.018 358.215 601.601 370.028 594.058 377.058C578.341 391.703 549.226 435.116 560.626 519.743C566.827 565.775 574.182 620.662 563.978 666.475C558.755 689.922 548.742 712.11 530.834 729.804C512.845 747.577 488.282 759.44 456.404 764.563C383.804 776.23 329.061 725.495 294.211 654.559C258.991 582.867 240.14 484.104 240.14 382.535C240.14 278.689 261.269 184.589 297.655 120.581C315.859 88.5568 338.575 62.867 365.605 48.0236Z" fill="#A2A1A7"/>
</mask>
<g mask="url(#mask0_2_51)">
<g filter="url(#filter2_dii_2_51)">
<path fill-rule="evenodd" clip-rule="evenodd" d="M324.91 77.3009C340.592 78.1017 356.56 81.5647 368.905 87.4288C379.15 92.2954 383.51 104.546 378.644 114.791C373.777 125.036 361.527 129.396 351.282 124.529C344.957 121.525 334.554 118.92 322.815 118.321C311.063 117.721 300.212 119.247 292.57 122.522C282.145 126.989 270.072 122.16 265.604 111.735C261.137 101.31 265.966 89.2367 276.391 84.7689C291.62 78.2423 309.24 76.5008 324.91 77.3009ZM450.175 155.454C450.175 144.112 459.37 134.918 470.712 134.918C485.901 134.918 502.986 140.175 517.728 147.513C532.537 154.884 547.656 165.683 557.665 179.133C564.437 188.232 562.55 201.098 553.451 207.869C544.352 214.64 531.486 212.753 524.715 203.654C519.788 197.034 510.637 189.864 499.425 184.283C488.145 178.668 477.46 175.991 470.712 175.991C459.37 175.991 450.175 166.796 450.175 155.454Z" fill="#49383E"/>
</g>
</g>
<g filter="url(#filter3_ii_2_51)">
<path fill-rule="evenodd" clip-rule="evenodd" d="M324.91 77.3009C340.592 78.1017 356.56 81.5647 368.905 87.4288C379.15 92.2954 383.51 104.546 378.644 114.791C373.777 125.036 361.527 129.396 351.282 124.529C344.957 121.525 334.554 118.92 322.815 118.321C311.063 117.721 300.212 119.247 292.571 122.522C282.145 126.989 270.072 122.16 265.605 111.735C261.137 101.31 265.966 89.2367 276.391 84.7689C291.62 78.2423 309.24 76.5008 324.91 77.3009ZM450.175 155.454C450.175 144.112 459.37 134.918 470.712 134.918C485.901 134.918 502.986 140.175 517.728 147.513C532.537 154.884 547.656 165.683 557.666 179.133C564.437 188.232 562.55 201.098 553.451 207.869C544.352 214.64 531.486 212.753 524.715 203.654C519.788 197.034 510.637 189.864 499.425 184.283C488.146 178.668 477.46 175.991 470.712 175.991C459.37 175.991 450.175 166.796 450.175 155.454Z" fill="#49383E"/>
</g>
<mask id="mask1_2_51" style="mask-type:alpha" maskUnits="userSpaceOnUse" x="239" y="34" width="361" height="732">
<path fill-rule="evenodd" clip-rule="evenodd" d="M365.138 47.7797C392.774 32.6029 423.827 29.4267 455.997 40.9358C485.995 51.6676 505.957 68.8315 516.442 92.165C526.552 114.665 526.585 140.197 522.861 165.425C519.124 190.74 511.176 218.247 503.082 245.609C502.514 247.532 501.944 249.455 501.373 251.38C493.69 277.309 485.958 303.403 480.601 329.562C468.537 388.461 475.332 439.907 481.011 482.897C481.973 490.185 482.904 497.23 483.705 504.027C486.303 526.07 488.089 549.089 481.071 567.356C477.24 577.329 470.813 585.988 461.115 592.321C451.738 598.444 440.432 601.661 427.822 602.963C403.306 605.494 384.015 594.995 370.308 578.549C357.25 562.881 348.977 541.689 343.652 520.206C332.948 477.023 332.418 425.36 335.925 392.008C337.003 381.754 346.19 374.315 356.444 375.393C366.699 376.471 374.138 385.658 373.06 395.912C369.876 426.194 370.498 473.315 379.895 511.223C384.62 530.286 391.136 545.217 398.992 554.643C406.199 563.291 413.948 566.858 423.987 565.821C432.847 564.906 437.852 562.916 440.698 561.057C443.223 559.408 444.93 557.31 446.215 553.966C449.429 545.6 449.374 531.745 446.622 508.398C445.896 502.236 445.015 495.636 444.079 488.63C438.35 445.731 430.591 387.635 444.02 322.07C449.716 294.261 457.891 266.684 465.487 241.06C466.087 239.033 466.684 237.019 467.277 235.017C475.491 207.247 482.633 182.249 485.922 159.972C489.223 137.607 488.219 120.458 482.383 107.469C476.921 95.3137 466.029 84.182 443.419 76.0932C421.447 68.2326 401.508 70.406 383.112 80.5087C364.108 90.9447 345.751 110.464 329.649 138.789C297.424 195.479 277.013 282.638 277.013 382.291C277.013 480.023 295.268 572.732 327.258 637.851C359.62 703.724 402.193 735.137 450.013 727.452C475.778 723.312 492.701 714.284 504.123 702.998C515.625 691.634 522.947 676.597 527.064 658.113C535.539 620.064 529.591 572.268 523.154 524.484C510.284 428.949 542.779 373.124 568.136 349.496C575.679 342.467 587.493 342.883 594.522 350.427C601.552 357.971 601.135 369.784 593.591 376.814C577.874 391.459 548.759 434.872 560.159 519.499C566.361 565.532 573.715 620.419 563.511 666.231C558.288 689.678 548.276 711.866 530.367 729.56C512.379 747.333 487.815 759.196 455.937 764.319C383.338 775.986 328.594 725.251 293.745 654.315C258.525 582.623 239.673 483.86 239.673 382.291C239.673 278.445 260.802 184.345 297.188 120.337C315.392 88.3129 338.109 62.6231 365.138 47.7797Z" fill="#A2A1A7"/>
</mask>
<g mask="url(#mask1_2_51)">
<g filter="url(#filter4_dii_2_51)">
<path d="M555.659 289.41C555.659 334.263 519.299 370.624 474.446 370.624C429.593 370.624 393.232 334.263 393.232 289.41C393.232 244.557 429.593 208.197 474.446 208.197C519.299 208.197 555.659 244.557 555.659 289.41Z" fill="#C4C4C4"/>
<path d="M362.427 239.002C362.427 283.855 326.066 320.215 281.214 320.215C236.361 320.215 200 283.855 200 239.002C200 194.149 236.361 157.788 281.214 157.788C326.066 157.788 362.427 194.149 362.427 239.002Z" fill="#C4C4C4"/>
</g>
</g>
<g filter="url(#filter5_ii_2_51)">
<path d="M555.659 289.41C555.659 334.263 519.299 370.623 474.446 370.623C429.593 370.623 393.232 334.263 393.232 289.41C393.232 244.557 429.593 208.196 474.446 208.196C519.299 208.196 555.659 244.557 555.659 289.41Z" fill="#E3E3E3"/>
<path d="M362.427 239.002C362.427 283.855 326.066 320.215 281.214 320.215C236.361 320.215 200 283.855 200 239.002C200 194.149 236.361 157.788 281.214 157.788C326.066 157.788 362.427 194.149 362.427 239.002Z" fill="#E3E3E3"/>
</g>
<g filter="url(#filter6_d_2_51)">
<path d="M347.491 239.935C347.491 270.353 322.833 295.011 292.415 295.011C261.998 295.011 237.34 270.353 237.34 239.935C237.34 209.518 261.998 184.859 292.415 184.859C322.833 184.859 347.491 209.518 347.491 239.935Z" fill="#3D2A2C"/>
<path d="M521.12 289.41C521.12 319.828 496.462 344.486 466.044 344.486C435.627 344.486 410.968 319.828 410.968 289.41C410.968 258.992 435.627 234.334 466.044 234.334C496.462 234.334 521.12 258.992 521.12 289.41Z" fill="#3D2A2C"/>
</g>
</g>
</g>
<defs>
<filter id="filter0_d_2_51" x="160.354" y="9.2213" width="498.648" height="831.106" filterUnits="userSpaceOnUse" color-interpolation-filters="sRGB">
<feFlood flood-opacity="0" result="BackgroundImageFix"/>
<feColorMatrix in="SourceAlpha" type="matrix" values="0 0 0 0 0 0 0 0 0 0 0 0 0 0 0 0 0 0 127 0" result="hardAlpha"/>
<feOffset dx="9.9115" dy="24.7788"/>
<feGaussianBlur stdDeviation="24.7788"/>
<feColorMatrix type="matrix" values="0 0 0 0 0 0 0 0 0 0 0 0 0 0 0 0 0 0 0.25 0"/>
<feBlend mode="normal" in2="BackgroundImageFix" result="effect1_dropShadow_2_51"/>
<feBlend mode="normal" in="SourceGraphic" in2="effect1_dropShadow_2_51" result="shape"/>
</filter>
<filter id="filter1_ii_2_51" x="233.792" y="26.1588" width="369.662" height="755.515" filterUnits="userSpaceOnUse" color-interpolation-filters="sRGB">
<feFlood flood-opacity="0" result="BackgroundImageFix"/>
<feBlend mode="normal" in="SourceGraphic" in2="BackgroundImageFix" result="shape"/>
<feColorMatrix in="SourceAlpha" type="matrix" values="0 0 0 0 0 0 0 0 0 0 0 0 0 0 0 0 0 0 127 0" result="hardAlpha"/>
<feOffset dx="3.92065" dy="-7.8413"/>
<feGaussianBlur stdDeviation="19.6033"/>
<feComposite in2="hardAlpha" operator="arithmetic" k2="-1" k3="1"/>
<feColorMatrix type="matrix" values="0 0 0 0 0.075 0 0 0 0 0.1025 0 0 0 0 0.2 0 0 0 0.65 0"/>
<feBlend mode="normal" in2="shape" result="effect1_innerShadow_2_51"/>
<feColorMatrix in="SourceAlpha" type="matrix" values="0 0 0 0 0 0 0 0 0 0 0 0 0 0 0 0 0 0 127 0" result="hardAlpha"/>
<feOffset dx="-5.88098" dy="19.6033"/>
<feGaussianBlur stdDeviation="7.8413"/>
<feComposite in2="hardAlpha" operator="arithmetic" k2="-1" k3="1"/>
<feColorMatrix type="matrix" values="0 0 0 0 1 0 0 0 0 1 0 0 0 0 1 0 0 0 0.35 0"/>
<feBlend mode="normal" in2="effect1_innerShadow_2_51" result="effect2_innerShadow_2_51"/>
</filter>
<filter id="filter2_dii_2_51" x="244.335" y="69.2787" width="336.996" height="182.84" filterUnits="userSpaceOnUse" color-interpolation-filters="sRGB">
<feFlood flood-opacity="0" result="BackgroundImageFix"/>
<feColorMatrix in="SourceAlpha" type="matrix" values="0 0 0 0 0 0 0 0 0 0 0 0 0 0 0 0 0 0 127 0" result="hardAlpha"/>
<feOffset dy="20.5834"/>
<feGaussianBlur stdDeviation="9.80163"/>
<feColorMatrix type="matrix" values="0 0 0 0 0 0 0 0 0 0 0 0 0 0 0 0 0 0 0.25 0"/>
<feBlend mode="normal" in2="BackgroundImageFix" result="effect1_dropShadow_2_51"/>
<feBlend mode="normal" in="SourceGraphic" in2="effect1_dropShadow_2_51" result="shape"/>
<feColorMatrix in="SourceAlpha" type="matrix" values="0 0 0 0 0 0 0 0 0 0 0 0 0 0 0 0 0 0 127 0" result="hardAlpha"/>
<feOffset dy="-7.8413"/>
<feGaussianBlur stdDeviation="19.6033"/>
<feComposite in2="hardAlpha" operator="arithmetic" k2="-1" k3="1"/>
<feColorMatrix type="matrix" values="0 0 0 0 0 0 0 0 0 0 0 0 0 0 0 0 0 0 0.5 0"/>
<feBlend mode="normal" in2="shape" result="effect2_innerShadow_2_51"/>
<feColorMatrix in="SourceAlpha" type="matrix" values="0 0 0 0 0 0 0 0 0 0 0 0 0 0 0 0 0 0 127 0" result="hardAlpha"/>
<feOffset dx="-3.92065" dy="11.762"/>
<feGaussianBlur stdDeviation="9.80163"/>
<feComposite in2="hardAlpha" operator="arithmetic" k2="-1" k3="1"/>
<feColorMatrix type="matrix" values="0 0 0 0 1 0 0 0 0 1 0 0 0 0 1 0 0 0 0.25 0"/>
<feBlend mode="normal" in2="effect2_innerShadow_2_51" result="effect3_innerShadow_2_51"/>
</filter>
<filter id="filter3_ii_2_51" x="260.018" y="69.2787" width="301.71" height="154.415" filterUnits="userSpaceOnUse" color-interpolation-filters="sRGB">
<feFlood flood-opacity="0" result="BackgroundImageFix"/>
<feBlend mode="normal" in="SourceGraphic" in2="BackgroundImageFix" result="shape"/>
<feColorMatrix in="SourceAlpha" type="matrix" values="0 0 0 0 0 0 0 0 0 0 0 0 0 0 0 0 0 0 127 0" result="hardAlpha"/>
<feOffset dy="-7.8413"/>
<feGaussianBlur stdDeviation="19.6033"/>
<feComposite in2="hardAlpha" operator="arithmetic" k2="-1" k3="1"/>
<feColorMatrix type="matrix" values="0 0 0 0 0 0 0 0 0 0 0 0 0 0 0 0 0 0 0.5 0"/>
<feBlend mode="normal" in2="shape" result="effect1_innerShadow_2_51"/>
<feColorMatrix in="SourceAlpha" type="matrix" values="0 0 0 0 0 0 0 0 0 0 0 0 0 0 0 0 0 0 127 0" result="hardAlpha"/>
<feOffset dx="-3.92065" dy="11.762"/>
<feGaussianBlur stdDeviation="9.80163"/>
<feComposite in2="hardAlpha" operator="arithmetic" k2="-1" k3="1"/>
<feColorMatrix type="matrix" values="0 0 0 0 1 0 0 0 0 1 0 0 0 0 1 0 0 0 0.25 0"/>
<feBlend mode="normal" in2="effect1_innerShadow_2_51" result="effect2_innerShadow_2_51"/>
</filter>
<filter id="filter4_dii_2_51" x="160.793" y="149.947" width="414.469" height="260.863" filterUnits="userSpaceOnUse" color-interpolation-filters="sRGB">
<feFlood flood-opacity="0" result="BackgroundImageFix"/>
<feColorMatrix in="SourceAlpha" type="matrix" values="0 0 0 0 0 0 0 0 0 0 0 0 0 0 0 0 0 0 127 0" result="hardAlpha"/>
<feOffset dy="20.5834"/>
<feGaussianBlur stdDeviation="9.80163"/>
<feColorMatrix type="matrix" values="0 0 0 0 0 0 0 0 0 0 0 0 0 0 0 0 0 0 0.25 0"/>
<feBlend mode="normal" in2="BackgroundImageFix" result="effect1_dropShadow_2_51"/>
<feBlend mode="normal" in="SourceGraphic" in2="effect1_dropShadow_2_51" result="shape"/>
<feColorMatrix in="SourceAlpha" type="matrix" values="0 0 0 0 0 0 0 0 0 0 0 0 0 0 0 0 0 0 127 0" result="hardAlpha"/>
<feOffset dy="-7.8413"/>
<feGaussianBlur stdDeviation="9.80163"/>
<feComposite in2="hardAlpha" operator="arithmetic" k2="-1" k3="1"/>
<feColorMatrix type="matrix" values="0 0 0 0 0 0 0 0 0 0 0 0 0 0 0 0 0 0 0.25 0"/>
<feBlend mode="normal" in2="shape" result="effect2_innerShadow_2_51"/>
<feColorMatrix in="SourceAlpha" type="matrix" values="0 0 0 0 0 0 0 0 0 0 0 0 0 0 0 0 0 0 127 0" result="hardAlpha"/>
<feOffset dx="-39.2065" dy="3.92065"/>
<feGaussianBlur stdDeviation="19.6033"/>
<feComposite in2="hardAlpha" operator="arithmetic" k2="-1" k3="1"/>
<feColorMatrix type="matrix" values="0 0 0 0 1 0 0 0 0 1 0 0 0 0 1 0 0 0 0.25 0"/>
<feBlend mode="normal" in2="effect2_innerShadow_2_51" result="effect3_innerShadow_2_51"/>
</filter>
<filter id="filter5_ii_2_51" x="160.793" y="149.947" width="394.866" height="224.597" filterUnits="userSpaceOnUse" color-interpolation-filters="sRGB">
<feFlood flood-opacity="0" result="BackgroundImageFix"/>
<feBlend mode="normal" in="SourceGraphic" in2="BackgroundImageFix" result="shape"/>
<feColorMatrix in="SourceAlpha" type="matrix" values="0 0 0 0 0 0 0 0 0 0 0 0 0 0 0 0 0 0 127 0" result="hardAlpha"/>
<feOffset dy="-7.8413"/>
<feGaussianBlur stdDeviation="9.80163"/>
<feComposite in2="hardAlpha" operator="arithmetic" k2="-1" k3="1"/>
<feColorMatrix type="matrix" values="0 0 0 0 0 0 0 0 0 0 0 0 0 0 0 0 0 0 0.25 0"/>
<feBlend mode="normal" in2="shape" result="effect1_innerShadow_2_51"/>
<feColorMatrix in="SourceAlpha" type="matrix" values="0 0 0 0 0 0 0 0 0 0 0 0 0 0 0 0 0 0 127 0" result="hardAlpha"/>
<feOffset dx="-39.2065" dy="3.92065"/>
<feGaussianBlur stdDeviation="19.6033"/>
<feComposite in2="hardAlpha" operator="arithmetic" k2="-1" k3="1"/>
<feColorMatrix type="matrix" values="0 0 0 0 1 0 0 0 0 1 0 0 0 0 1 0 0 0 0.25 0"/>
<feBlend mode="normal" in2="effect1_innerShadow_2_51" result="effect2_innerShadow_2_51"/>
</filter>
<filter id="filter6_d_2_51" x="217.736" y="173.097" width="322.987" height="198.833" filterUnits="userSpaceOnUse" color-interpolation-filters="sRGB">
<feFlood flood-opacity="0" result="BackgroundImageFix"/>
<feColorMatrix in="SourceAlpha" type="matrix" values="0 0 0 0 0 0 0 0 0 0 0 0 0 0 0 0 0 0 127 0" result="hardAlpha"/>
<feOffset dy="7.8413"/>
<feGaussianBlur stdDeviation="9.80163"/>
<feColorMatrix type="matrix" values="0 0 0 0 0 0 0 0 0 0 0 0 0 0 0 0 0 0 0.25 0"/>
<feBlend mode="normal" in2="BackgroundImageFix" result="effect1_dropShadow_2_51"/>
<feBlend mode="normal" in="SourceGraphic" in2="effect1_dropShadow_2_51" result="shape"/>
</filter>
<clipPath id="clip0_2_51">
<rect width="800" height="800" fill="white"/>
</clipPath>
</defs>
</svg>
